<mxfile host="app.diagrams.net" modified="2023-04-17T15:12:17.658Z" agent="Mozilla/5.0 (X11; Linux x86_64; rv:109.0) Gecko/20100101 Firefox/111.0" etag="5GU0WAOi4X7uOLkHHpEY" version="21.1.8" type="device" pages="2">
  <diagram name="Page-1" id="56QPCwbd0cLktFSz25ie">
    <mxGraphModel dx="4614" dy="2064" grid="1" gridSize="10" guides="1" tooltips="1" connect="1" arrows="1" fold="1" page="1" pageScale="1" pageWidth="850" pageHeight="1100" math="0" shadow="0">
      <root>
        <mxCell id="0" />
        <mxCell id="1" parent="0" />
        <mxCell id="5ZufOyqz3ApBtVje3TYC-17" value="" style="rounded=1;whiteSpace=wrap;html=1;fillColor=#d80073;fontColor=#ffffff;strokeColor=#A50040;opacity=50;" parent="1" vertex="1">
          <mxGeometry x="1435" y="1400" width="290" height="80" as="geometry" />
        </mxCell>
        <mxCell id="s6fN7-dTynS3gIBoWnJg-1" value="" style="shape=cube;whiteSpace=wrap;html=1;boundedLbl=1;backgroundOutline=1;darkOpacity=0.05;darkOpacity2=0.1;fillColor=none;" parent="1" vertex="1">
          <mxGeometry x="-30" y="440" width="1920" height="1110" as="geometry" />
        </mxCell>
        <mxCell id="k2swmo7qzIprsYgqh0As-2" value="&lt;font style=&quot;font-size: 35px;&quot;&gt;Resource Storage 1&lt;br&gt;&lt;/font&gt;" style="swimlane;whiteSpace=wrap;html=1;startSize=60;strokeWidth=4;fillColor=#e1d5e7;strokeColor=#9673a6;" parent="1" vertex="1">
          <mxGeometry x="90" y="740" width="860" height="660" as="geometry" />
        </mxCell>
        <mxCell id="k2swmo7qzIprsYgqh0As-3" value="&lt;font style=&quot;font-size: 35px;&quot;&gt;Resource Manager 1 (RM 1)&lt;br&gt;&lt;/font&gt;" style="swimlane;whiteSpace=wrap;html=1;startSize=60;strokeWidth=4;fillColor=#e1d5e7;strokeColor=#9673a6;" parent="1" vertex="1">
          <mxGeometry x="70" y="650" width="910" height="760" as="geometry" />
        </mxCell>
        <mxCell id="k2swmo7qzIprsYgqh0As-4" value="&lt;font style=&quot;font-size: 40px;&quot;&gt;Controller Manager 1 (CM 1)&lt;br&gt;&lt;/font&gt;" style="swimlane;whiteSpace=wrap;html=1;startSize=60;strokeWidth=4;fillColor=none;" parent="1" vertex="1">
          <mxGeometry x="40" y="560" width="1790" height="960" as="geometry" />
        </mxCell>
        <mxCell id="k2swmo7qzIprsYgqh0As-5" value="&lt;font style=&quot;font-size: 30px;&quot;&gt;Controller A&lt;br&gt;&lt;/font&gt;" style="swimlane;whiteSpace=wrap;html=1;startSize=60;strokeWidth=4;fillColor=#dae8fc;strokeColor=#6c8ebf;" parent="k2swmo7qzIprsYgqh0As-4" vertex="1">
          <mxGeometry x="1320" y="70" width="440" height="280" as="geometry" />
        </mxCell>
        <mxCell id="k2swmo7qzIprsYgqh0As-29" value="&lt;div&gt;&lt;b&gt;&lt;font style=&quot;font-size: 35px;&quot;&gt;Loaned Command-&lt;/font&gt;&lt;/b&gt;&lt;/div&gt;&lt;div&gt;&lt;b&gt;&lt;font style=&quot;font-size: 35px;&quot;&gt;/Stateinterfaces&lt;/font&gt;&lt;/b&gt;&lt;/div&gt;" style="rounded=1;whiteSpace=wrap;html=1;fillColor=#d80073;fontColor=#000000;strokeColor=#A50040;opacity=50;" parent="k2swmo7qzIprsYgqh0As-5" vertex="1">
          <mxGeometry x="75" y="100" width="290" height="140" as="geometry" />
        </mxCell>
        <mxCell id="k2swmo7qzIprsYgqh0As-7" value="" style="rounded=0;whiteSpace=wrap;html=1;rotation=-30;" parent="k2swmo7qzIprsYgqh0As-4" vertex="1">
          <mxGeometry x="320" y="630" width="30" height="10" as="geometry" />
        </mxCell>
        <mxCell id="k2swmo7qzIprsYgqh0As-8" value="" style="rounded=0;whiteSpace=wrap;html=1;rotation=-30;" parent="k2swmo7qzIprsYgqh0As-4" vertex="1">
          <mxGeometry x="300" y="600" width="30" height="10" as="geometry" />
        </mxCell>
        <mxCell id="k2swmo7qzIprsYgqh0As-9" value="" style="shape=cylinder3;whiteSpace=wrap;html=1;boundedLbl=1;backgroundOutline=1;size=15;" parent="k2swmo7qzIprsYgqh0As-4" vertex="1">
          <mxGeometry x="161.25" y="780" width="67.5" height="40" as="geometry" />
        </mxCell>
        <mxCell id="k2swmo7qzIprsYgqh0As-10" value="" style="rounded=0;whiteSpace=wrap;html=1;rotation=-30;direction=south;" parent="k2swmo7qzIprsYgqh0As-4" vertex="1">
          <mxGeometry x="220" y="640" width="100" height="20" as="geometry" />
        </mxCell>
        <mxCell id="k2swmo7qzIprsYgqh0As-11" value="" style="rounded=0;whiteSpace=wrap;html=1;rotation=15;" parent="k2swmo7qzIprsYgqh0As-4" vertex="1">
          <mxGeometry x="200" y="670" width="20" height="110" as="geometry" />
        </mxCell>
        <mxCell id="k2swmo7qzIprsYgqh0As-12" value="" style="ellipse;whiteSpace=wrap;html=1;aspect=fixed;" parent="k2swmo7qzIprsYgqh0As-4" vertex="1">
          <mxGeometry x="180" y="770" width="30" height="30" as="geometry" />
        </mxCell>
        <mxCell id="k2swmo7qzIprsYgqh0As-13" value="" style="ellipse;whiteSpace=wrap;html=1;aspect=fixed;" parent="k2swmo7qzIprsYgqh0As-4" vertex="1">
          <mxGeometry x="210" y="660" width="30" height="30" as="geometry" />
        </mxCell>
        <mxCell id="k2swmo7qzIprsYgqh0As-14" value="" style="rounded=0;whiteSpace=wrap;html=1;rotation=60;" parent="k2swmo7qzIprsYgqh0As-4" vertex="1">
          <mxGeometry x="290" y="620" width="50" height="10" as="geometry" />
        </mxCell>
        <mxCell id="k2swmo7qzIprsYgqh0As-15" value="" style="endArrow=classic;startArrow=classic;html=1;rounded=1;" parent="k2swmo7qzIprsYgqh0As-4" edge="1">
          <mxGeometry width="50" height="50" relative="1" as="geometry">
            <mxPoint x="200" y="670" as="sourcePoint" />
            <mxPoint x="220" y="650" as="targetPoint" />
            <Array as="points">
              <mxPoint x="200" y="650" />
            </Array>
          </mxGeometry>
        </mxCell>
        <mxCell id="k2swmo7qzIprsYgqh0As-16" value="" style="endArrow=classic;startArrow=classic;html=1;rounded=1;" parent="k2swmo7qzIprsYgqh0As-4" edge="1">
          <mxGeometry width="50" height="50" relative="1" as="geometry">
            <mxPoint x="158.75" y="780" as="sourcePoint" />
            <mxPoint x="168.75" y="750" as="targetPoint" />
            <Array as="points">
              <mxPoint x="150" y="760" />
            </Array>
          </mxGeometry>
        </mxCell>
        <mxCell id="k2swmo7qzIprsYgqh0As-17" value="" style="endArrow=classic;startArrow=classic;html=1;rounded=1;" parent="k2swmo7qzIprsYgqh0As-4" edge="1">
          <mxGeometry width="50" height="50" relative="1" as="geometry">
            <mxPoint x="150" y="810" as="sourcePoint" />
            <mxPoint x="150" y="790" as="targetPoint" />
            <Array as="points">
              <mxPoint x="140" y="800" />
            </Array>
          </mxGeometry>
        </mxCell>
        <mxCell id="k2swmo7qzIprsYgqh0As-18" value="" style="endArrow=classic;startArrow=classic;html=1;rounded=0;" parent="k2swmo7qzIprsYgqh0As-4" edge="1">
          <mxGeometry width="50" height="50" relative="1" as="geometry">
            <mxPoint x="360" y="620" as="sourcePoint" />
            <mxPoint x="340" y="585" as="targetPoint" />
          </mxGeometry>
        </mxCell>
        <mxCell id="k2swmo7qzIprsYgqh0As-27" style="edgeStyle=orthogonalEdgeStyle;rounded=0;orthogonalLoop=1;jettySize=auto;html=1;exitX=1;exitY=0.5;exitDx=0;exitDy=0;entryX=0.38;entryY=1.036;entryDx=0;entryDy=0;entryPerimeter=0;strokeWidth=4;" parent="k2swmo7qzIprsYgqh0As-4" source="k2swmo7qzIprsYgqh0As-19" target="k2swmo7qzIprsYgqh0As-25" edge="1">
          <mxGeometry relative="1" as="geometry" />
        </mxCell>
        <mxCell id="k2swmo7qzIprsYgqh0As-19" value="&lt;font size=&quot;1&quot;&gt;&lt;b style=&quot;font-size: 35px;&quot;&gt;System 1&lt;/b&gt;&lt;/font&gt;" style="swimlane;whiteSpace=wrap;html=1;startSize=60;" parent="k2swmo7qzIprsYgqh0As-4" vertex="1">
          <mxGeometry x="70" y="480" width="310" height="350" as="geometry" />
        </mxCell>
        <mxCell id="Htzmy-jLO9I82tcdOWEr-17" value="&lt;span style=&quot;font-size: 35px;&quot;&gt;Robot 1&lt;br&gt;&lt;/span&gt;" style="text;html=1;strokeColor=none;fillColor=none;align=center;verticalAlign=middle;whiteSpace=wrap;rounded=0;" parent="k2swmo7qzIprsYgqh0As-19" vertex="1">
          <mxGeometry x="80" y="70" width="190" height="30" as="geometry" />
        </mxCell>
        <mxCell id="k2swmo7qzIprsYgqh0As-25" value="&lt;div&gt;&lt;b&gt;&lt;font style=&quot;font-size: 35px;&quot;&gt;Command-&lt;/font&gt;&lt;/b&gt;&lt;/div&gt;&lt;div&gt;&lt;b&gt;&lt;font style=&quot;font-size: 35px;&quot;&gt;/Stateinterfaces&lt;/font&gt;&lt;/b&gt;&lt;/div&gt;" style="rounded=1;whiteSpace=wrap;html=1;fillColor=#60a917;fontColor=#000000;strokeColor=#2D7600;opacity=50;" parent="k2swmo7qzIprsYgqh0As-4" vertex="1">
          <mxGeometry x="80" y="250" width="290" height="120" as="geometry" />
        </mxCell>
        <mxCell id="k2swmo7qzIprsYgqh0As-28" value="&lt;font style=&quot;font-size: 30px;&quot;&gt;&lt;i&gt;Export&lt;/i&gt;&lt;/font&gt;" style="text;html=1;align=center;verticalAlign=middle;resizable=0;points=[];autosize=1;strokeColor=none;fillColor=none;" parent="k2swmo7qzIprsYgqh0As-4" vertex="1">
          <mxGeometry x="230" y="380" width="110" height="50" as="geometry" />
        </mxCell>
        <mxCell id="k2swmo7qzIprsYgqh0As-72" value="" style="ellipse;whiteSpace=wrap;html=1;aspect=fixed;fillColor=#000000;" parent="k2swmo7qzIprsYgqh0As-4" vertex="1">
          <mxGeometry x="490" y="670" width="20" height="20" as="geometry" />
        </mxCell>
        <mxCell id="k2swmo7qzIprsYgqh0As-71" value="" style="ellipse;whiteSpace=wrap;html=1;aspect=fixed;fillColor=#000000;" parent="k2swmo7qzIprsYgqh0As-4" vertex="1">
          <mxGeometry x="460" y="670" width="20" height="20" as="geometry" />
        </mxCell>
        <mxCell id="k2swmo7qzIprsYgqh0As-70" value="" style="ellipse;whiteSpace=wrap;html=1;aspect=fixed;fillColor=#000000;" parent="k2swmo7qzIprsYgqh0As-4" vertex="1">
          <mxGeometry x="430" y="670" width="20" height="20" as="geometry" />
        </mxCell>
        <mxCell id="B9zxyq6WkkOic2k-YxRw-15" style="rounded=0;orthogonalLoop=1;jettySize=auto;html=1;strokeWidth=5;entryX=0;entryY=0.5;entryDx=0;entryDy=0;fillColor=#d80073;strokeColor=#A50040;opacity=50;" parent="k2swmo7qzIprsYgqh0As-4" target="k2swmo7qzIprsYgqh0As-29" edge="1">
          <mxGeometry relative="1" as="geometry">
            <mxPoint x="1360" y="400" as="targetPoint" />
            <mxPoint x="940" y="300" as="sourcePoint" />
          </mxGeometry>
        </mxCell>
        <mxCell id="B9zxyq6WkkOic2k-YxRw-16" value="&lt;font style=&quot;font-size: 35px;&quot;&gt;&lt;i&gt;Assigne by&lt;br&gt;CM 1&lt;br&gt;&lt;/i&gt;&lt;/font&gt;" style="edgeLabel;html=1;align=center;verticalAlign=middle;resizable=0;points=[];labelBackgroundColor=none;" parent="B9zxyq6WkkOic2k-YxRw-15" vertex="1" connectable="0">
          <mxGeometry x="0.15" y="6" relative="1" as="geometry">
            <mxPoint x="-57" y="-40" as="offset" />
          </mxGeometry>
        </mxCell>
        <mxCell id="5ZufOyqz3ApBtVje3TYC-1" value="&lt;div&gt;&lt;b&gt;&lt;font style=&quot;font-size: 35px;&quot;&gt;Command-&lt;/font&gt;&lt;/b&gt;&lt;/div&gt;&lt;div&gt;&lt;b&gt;&lt;font style=&quot;font-size: 35px;&quot;&gt;/Stateinterfaces&lt;/font&gt;&lt;/b&gt;&lt;/div&gt;" style="rounded=1;whiteSpace=wrap;html=1;fillColor=#d80073;fontColor=#000000;strokeColor=#A50040;strokeWidth=1;opacity=50;" parent="k2swmo7qzIprsYgqh0As-4" vertex="1">
          <mxGeometry x="560" y="250" width="290" height="120" as="geometry" />
        </mxCell>
        <mxCell id="5ZufOyqz3ApBtVje3TYC-12" style="rounded=0;orthogonalLoop=1;jettySize=auto;html=1;strokeWidth=5;entryX=0;entryY=0.25;entryDx=0;entryDy=0;fillColor=#d80073;strokeColor=#A50040;opacity=50;" parent="k2swmo7qzIprsYgqh0As-4" edge="1">
          <mxGeometry relative="1" as="geometry">
            <mxPoint x="1395" y="845" as="targetPoint" />
            <mxPoint x="940" y="380" as="sourcePoint" />
          </mxGeometry>
        </mxCell>
        <mxCell id="5ZufOyqz3ApBtVje3TYC-13" value="&lt;font style=&quot;font-size: 35px;&quot;&gt;&lt;i&gt;Assigne by&lt;br&gt;CM 1&lt;br&gt;&lt;/i&gt;&lt;/font&gt;" style="edgeLabel;html=1;align=center;verticalAlign=middle;resizable=0;points=[];labelBackgroundColor=none;" parent="5ZufOyqz3ApBtVje3TYC-12" vertex="1" connectable="0">
          <mxGeometry x="0.15" y="6" relative="1" as="geometry">
            <mxPoint x="14" y="-93" as="offset" />
          </mxGeometry>
        </mxCell>
        <mxCell id="5ZufOyqz3ApBtVje3TYC-14" style="rounded=0;orthogonalLoop=1;jettySize=auto;html=1;strokeWidth=5;entryX=0;entryY=0.5;entryDx=0;entryDy=0;fillColor=#60a917;strokeColor=#2D7600;opacity=50;" parent="k2swmo7qzIprsYgqh0As-4" target="B9zxyq6WkkOic2k-YxRw-18" edge="1">
          <mxGeometry relative="1" as="geometry">
            <mxPoint x="1395" y="795" as="targetPoint" />
            <mxPoint x="940" y="330" as="sourcePoint" />
          </mxGeometry>
        </mxCell>
        <mxCell id="5ZufOyqz3ApBtVje3TYC-15" value="&lt;font style=&quot;font-size: 35px;&quot;&gt;&lt;i&gt;Assigne by&lt;br&gt;CM 1&lt;br&gt;&lt;/i&gt;&lt;/font&gt;" style="edgeLabel;html=1;align=center;verticalAlign=middle;resizable=0;points=[];labelBackgroundColor=none;" parent="5ZufOyqz3ApBtVje3TYC-14" vertex="1" connectable="0">
          <mxGeometry x="0.15" y="6" relative="1" as="geometry">
            <mxPoint x="-44" y="-69" as="offset" />
          </mxGeometry>
        </mxCell>
        <mxCell id="s6fN7-dTynS3gIBoWnJg-2" value="&lt;b&gt;&lt;font style=&quot;font-size: 80px;&quot;&gt;&amp;nbsp;Machine 1&lt;br&gt;&lt;/font&gt;&lt;/b&gt;" style="text;html=1;align=center;verticalAlign=middle;resizable=0;points=[];autosize=1;strokeColor=none;fillColor=none;" parent="1" vertex="1">
          <mxGeometry x="625" y="340" width="430" height="110" as="geometry" />
        </mxCell>
        <mxCell id="B9zxyq6WkkOic2k-YxRw-1" value="" style="rounded=0;whiteSpace=wrap;html=1;rotation=-30;" parent="1" vertex="1">
          <mxGeometry x="840" y="1190" width="30" height="10" as="geometry" />
        </mxCell>
        <mxCell id="B9zxyq6WkkOic2k-YxRw-2" value="" style="rounded=0;whiteSpace=wrap;html=1;rotation=-30;" parent="1" vertex="1">
          <mxGeometry x="820" y="1160" width="30" height="10" as="geometry" />
        </mxCell>
        <mxCell id="B9zxyq6WkkOic2k-YxRw-3" value="" style="shape=cylinder3;whiteSpace=wrap;html=1;boundedLbl=1;backgroundOutline=1;size=15;" parent="1" vertex="1">
          <mxGeometry x="681.25" y="1340" width="67.5" height="40" as="geometry" />
        </mxCell>
        <mxCell id="B9zxyq6WkkOic2k-YxRw-4" value="" style="rounded=0;whiteSpace=wrap;html=1;rotation=-30;direction=south;" parent="1" vertex="1">
          <mxGeometry x="740" y="1200" width="100" height="20" as="geometry" />
        </mxCell>
        <mxCell id="B9zxyq6WkkOic2k-YxRw-5" value="" style="rounded=0;whiteSpace=wrap;html=1;rotation=15;" parent="1" vertex="1">
          <mxGeometry x="720" y="1230" width="20" height="110" as="geometry" />
        </mxCell>
        <mxCell id="B9zxyq6WkkOic2k-YxRw-6" value="" style="ellipse;whiteSpace=wrap;html=1;aspect=fixed;" parent="1" vertex="1">
          <mxGeometry x="700" y="1330" width="30" height="30" as="geometry" />
        </mxCell>
        <mxCell id="B9zxyq6WkkOic2k-YxRw-7" value="" style="ellipse;whiteSpace=wrap;html=1;aspect=fixed;" parent="1" vertex="1">
          <mxGeometry x="730" y="1220" width="30" height="30" as="geometry" />
        </mxCell>
        <mxCell id="B9zxyq6WkkOic2k-YxRw-8" value="" style="rounded=0;whiteSpace=wrap;html=1;rotation=60;" parent="1" vertex="1">
          <mxGeometry x="810" y="1180" width="50" height="10" as="geometry" />
        </mxCell>
        <mxCell id="B9zxyq6WkkOic2k-YxRw-9" value="" style="endArrow=classic;startArrow=classic;html=1;rounded=1;" parent="1" edge="1">
          <mxGeometry width="50" height="50" relative="1" as="geometry">
            <mxPoint x="720" y="1230" as="sourcePoint" />
            <mxPoint x="740" y="1210" as="targetPoint" />
            <Array as="points">
              <mxPoint x="720" y="1210" />
            </Array>
          </mxGeometry>
        </mxCell>
        <mxCell id="B9zxyq6WkkOic2k-YxRw-10" value="" style="endArrow=classic;startArrow=classic;html=1;rounded=1;" parent="1" edge="1">
          <mxGeometry width="50" height="50" relative="1" as="geometry">
            <mxPoint x="678.75" y="1340" as="sourcePoint" />
            <mxPoint x="688.75" y="1310" as="targetPoint" />
            <Array as="points">
              <mxPoint x="670" y="1320" />
            </Array>
          </mxGeometry>
        </mxCell>
        <mxCell id="B9zxyq6WkkOic2k-YxRw-11" value="" style="endArrow=classic;startArrow=classic;html=1;rounded=1;" parent="1" edge="1">
          <mxGeometry width="50" height="50" relative="1" as="geometry">
            <mxPoint x="670" y="1370" as="sourcePoint" />
            <mxPoint x="670" y="1350" as="targetPoint" />
            <Array as="points">
              <mxPoint x="660" y="1360" />
            </Array>
          </mxGeometry>
        </mxCell>
        <mxCell id="B9zxyq6WkkOic2k-YxRw-12" value="" style="endArrow=classic;startArrow=classic;html=1;rounded=0;" parent="1" edge="1">
          <mxGeometry width="50" height="50" relative="1" as="geometry">
            <mxPoint x="880" y="1180" as="sourcePoint" />
            <mxPoint x="860" y="1145" as="targetPoint" />
          </mxGeometry>
        </mxCell>
        <mxCell id="B9zxyq6WkkOic2k-YxRw-13" value="&lt;font size=&quot;1&quot;&gt;&lt;b style=&quot;font-size: 35px;&quot;&gt;System N&lt;/b&gt;&lt;/font&gt;" style="swimlane;whiteSpace=wrap;html=1;startSize=60;" parent="1" vertex="1">
          <mxGeometry x="590" y="1040" width="310" height="350" as="geometry" />
        </mxCell>
        <mxCell id="B9zxyq6WkkOic2k-YxRw-14" value="&lt;span style=&quot;font-size: 35px;&quot;&gt;Robot N&lt;br&gt;&lt;/span&gt;" style="text;html=1;strokeColor=none;fillColor=none;align=center;verticalAlign=middle;whiteSpace=wrap;rounded=0;" parent="B9zxyq6WkkOic2k-YxRw-13" vertex="1">
          <mxGeometry x="70" y="70" width="190" height="30" as="geometry" />
        </mxCell>
        <mxCell id="WUTknS81Z-DDv-2l-3iP-3" style="edgeStyle=orthogonalEdgeStyle;rounded=0;orthogonalLoop=1;jettySize=auto;html=1;entryX=0;entryY=0.5;entryDx=0;entryDy=0;endArrow=none;endFill=0;strokeWidth=4;strokeColor=#999999;movable=1;resizable=1;rotatable=1;deletable=1;editable=1;locked=0;connectable=1;exitX=1;exitY=0.5;exitDx=0;exitDy=0;" edge="1" parent="1" source="B9zxyq6WkkOic2k-YxRw-18" target="WUTknS81Z-DDv-2l-3iP-1">
          <mxGeometry relative="1" as="geometry">
            <Array as="points">
              <mxPoint x="2043" y="1090" />
            </Array>
          </mxGeometry>
        </mxCell>
        <mxCell id="B9zxyq6WkkOic2k-YxRw-17" value="&lt;font style=&quot;font-size: 30px;&quot;&gt;Controller B&lt;br&gt;&lt;/font&gt;" style="swimlane;whiteSpace=wrap;html=1;startSize=60;strokeWidth=4;fillColor=#dae8fc;strokeColor=#6c8ebf;" parent="1" vertex="1">
          <mxGeometry x="1360" y="920" width="440" height="280" as="geometry" />
        </mxCell>
        <mxCell id="B9zxyq6WkkOic2k-YxRw-18" value="&lt;div&gt;&lt;b&gt;&lt;font style=&quot;font-size: 35px;&quot;&gt;Loaned Command-&lt;/font&gt;&lt;/b&gt;&lt;/div&gt;&lt;div&gt;&lt;b&gt;&lt;font style=&quot;font-size: 35px;&quot;&gt;/Stateinterfaces&lt;/font&gt;&lt;/b&gt;&lt;/div&gt;" style="rounded=1;whiteSpace=wrap;html=1;fillColor=#60a917;fontColor=#000000;strokeColor=#2D7600;opacity=50;" parent="B9zxyq6WkkOic2k-YxRw-17" vertex="1">
          <mxGeometry x="75" y="100" width="290" height="140" as="geometry" />
        </mxCell>
        <mxCell id="5ZufOyqz3ApBtVje3TYC-2" style="edgeStyle=orthogonalEdgeStyle;rounded=0;orthogonalLoop=1;jettySize=auto;html=1;exitX=1;exitY=0.5;exitDx=0;exitDy=0;entryX=0.458;entryY=0.995;entryDx=0;entryDy=0;entryPerimeter=0;strokeWidth=4;" parent="1" source="B9zxyq6WkkOic2k-YxRw-13" target="5ZufOyqz3ApBtVje3TYC-1" edge="1">
          <mxGeometry relative="1" as="geometry">
            <mxPoint x="430" y="1225" as="sourcePoint" />
            <mxPoint x="240" y="944" as="targetPoint" />
          </mxGeometry>
        </mxCell>
        <mxCell id="5ZufOyqz3ApBtVje3TYC-3" value="&lt;font style=&quot;font-size: 30px;&quot;&gt;&lt;i&gt;Export&lt;/i&gt;&lt;/font&gt;" style="text;html=1;align=center;verticalAlign=middle;resizable=0;points=[];autosize=1;strokeColor=none;fillColor=none;" parent="1" vertex="1">
          <mxGeometry x="780" y="940" width="110" height="50" as="geometry" />
        </mxCell>
        <mxCell id="5ZufOyqz3ApBtVje3TYC-8" value="&lt;font style=&quot;font-size: 30px;&quot;&gt;Controller C&lt;br&gt;&lt;/font&gt;" style="swimlane;whiteSpace=wrap;html=1;startSize=60;strokeWidth=4;fillColor=#dae8fc;strokeColor=#6c8ebf;" parent="1" vertex="1">
          <mxGeometry x="1360" y="1220" width="440" height="280" as="geometry" />
        </mxCell>
        <mxCell id="5ZufOyqz3ApBtVje3TYC-9" value="" style="rounded=1;whiteSpace=wrap;html=1;fillColor=#60a917;fontColor=#ffffff;strokeColor=#2D7600;opacity=50;" parent="5ZufOyqz3ApBtVje3TYC-8" vertex="1">
          <mxGeometry x="75" y="100" width="290" height="80" as="geometry" />
        </mxCell>
        <mxCell id="5ZufOyqz3ApBtVje3TYC-16" value="&lt;div&gt;&lt;b&gt;&lt;font style=&quot;font-size: 35px;&quot;&gt;Loaned &lt;br&gt;&lt;/font&gt;&lt;/b&gt;&lt;/div&gt;&lt;div&gt;&lt;b&gt;&lt;font style=&quot;font-size: 35px;&quot;&gt;Command-&lt;/font&gt;&lt;/b&gt;&lt;/div&gt;&lt;div&gt;&lt;b&gt;&lt;font style=&quot;font-size: 35px;&quot;&gt;/Stateinterfaces&lt;/font&gt;&lt;/b&gt;&lt;/div&gt;" style="text;whiteSpace=wrap;html=1;" parent="5ZufOyqz3ApBtVje3TYC-8" vertex="1">
          <mxGeometry x="90" y="110" width="350" height="110" as="geometry" />
        </mxCell>
        <mxCell id="5ZufOyqz3ApBtVje3TYC-10" style="rounded=0;orthogonalLoop=1;jettySize=auto;html=1;strokeWidth=5;entryX=0;entryY=0.25;entryDx=0;entryDy=0;fillColor=#60a917;strokeColor=#2D7600;opacity=50;" parent="1" target="5ZufOyqz3ApBtVje3TYC-9" edge="1">
          <mxGeometry relative="1" as="geometry">
            <mxPoint x="1445" y="810" as="targetPoint" />
            <mxPoint x="980" y="930" as="sourcePoint" />
          </mxGeometry>
        </mxCell>
        <mxCell id="5ZufOyqz3ApBtVje3TYC-11" value="&lt;font style=&quot;font-size: 35px;&quot;&gt;&lt;i&gt;Assigne by&lt;br&gt;CM 1&lt;br&gt;&lt;/i&gt;&lt;/font&gt;" style="edgeLabel;html=1;align=center;verticalAlign=middle;resizable=0;points=[];labelBackgroundColor=none;" parent="5ZufOyqz3ApBtVje3TYC-10" vertex="1" connectable="0">
          <mxGeometry x="0.15" y="6" relative="1" as="geometry">
            <mxPoint x="-36" y="140" as="offset" />
          </mxGeometry>
        </mxCell>
        <mxCell id="WUTknS81Z-DDv-2l-3iP-1" value="&lt;div&gt;&lt;i&gt;&lt;font style=&quot;font-size: 35px;&quot; color=&quot;#9673a6&quot;&gt;Created&lt;/font&gt;&lt;/i&gt;&lt;/div&gt;&lt;div&gt;&lt;i&gt;&lt;font style=&quot;font-size: 35px;&quot; color=&quot;#9673a6&quot;&gt;by&lt;/font&gt;&lt;/i&gt;&lt;/div&gt;&lt;div&gt;&lt;i&gt;&lt;font style=&quot;font-size: 35px;&quot; color=&quot;#9673a6&quot;&gt;RM 1&lt;br&gt;&lt;/font&gt;&lt;/i&gt;&lt;/div&gt;" style="text;html=1;strokeColor=default;fillColor=#CCCCCC;align=center;verticalAlign=middle;whiteSpace=wrap;rounded=0;gradientColor=none;opacity=40;" vertex="1" parent="1">
          <mxGeometry x="2050" y="1015" width="165" height="150" as="geometry" />
        </mxCell>
        <mxCell id="WUTknS81Z-DDv-2l-3iP-2" style="edgeStyle=orthogonalEdgeStyle;rounded=0;orthogonalLoop=1;jettySize=auto;html=1;entryX=0;entryY=0.5;entryDx=0;entryDy=0;endArrow=none;endFill=0;strokeWidth=4;strokeColor=#999999;movable=1;resizable=1;rotatable=1;deletable=1;editable=1;locked=0;connectable=1;" edge="1" parent="1" source="k2swmo7qzIprsYgqh0As-29" target="WUTknS81Z-DDv-2l-3iP-1">
          <mxGeometry relative="1" as="geometry">
            <Array as="points">
              <mxPoint x="1960" y="800" />
              <mxPoint x="1960" y="1090" />
            </Array>
          </mxGeometry>
        </mxCell>
        <mxCell id="WUTknS81Z-DDv-2l-3iP-4" style="edgeStyle=orthogonalEdgeStyle;rounded=0;orthogonalLoop=1;jettySize=auto;html=1;entryX=0;entryY=0.5;entryDx=0;entryDy=0;endArrow=none;endFill=0;strokeWidth=4;strokeColor=#999999;movable=1;resizable=1;rotatable=1;deletable=1;editable=1;locked=0;connectable=1;exitX=0.771;exitY=0.636;exitDx=0;exitDy=0;exitPerimeter=0;" edge="1" parent="1" source="5ZufOyqz3ApBtVje3TYC-16" target="WUTknS81Z-DDv-2l-3iP-1">
          <mxGeometry relative="1" as="geometry">
            <Array as="points">
              <mxPoint x="1960" y="1400" />
              <mxPoint x="1960" y="1090" />
            </Array>
          </mxGeometry>
        </mxCell>
      </root>
    </mxGraphModel>
  </diagram>
  <diagram id="7FtP37KT-29P_XhfnKfn" name="Page-2">
    <mxGraphModel dx="4990" dy="2270" grid="1" gridSize="10" guides="1" tooltips="1" connect="1" arrows="1" fold="1" page="1" pageScale="1" pageWidth="850" pageHeight="1100" math="0" shadow="0">
      <root>
        <mxCell id="0" />
        <mxCell id="1" parent="0" />
        <mxCell id="BW--KUniSTBB0yEnEaVZ-1" value="" style="shape=cube;whiteSpace=wrap;html=1;boundedLbl=1;backgroundOutline=1;darkOpacity=0.05;darkOpacity2=0.1;fillColor=none;" parent="1" vertex="1">
          <mxGeometry x="-30" y="440" width="1740" height="1020" as="geometry" />
        </mxCell>
        <mxCell id="BW--KUniSTBB0yEnEaVZ-2" value="&lt;font style=&quot;font-size: 35px;&quot;&gt;Resource Storage 1&lt;br&gt;&lt;/font&gt;" style="swimlane;whiteSpace=wrap;html=1;startSize=60;strokeWidth=4;fillColor=#e1d5e7;strokeColor=#9673a6;" parent="1" vertex="1">
          <mxGeometry x="90" y="740" width="770" height="660" as="geometry" />
        </mxCell>
        <mxCell id="BW--KUniSTBB0yEnEaVZ-3" value="&lt;font style=&quot;font-size: 35px;&quot;&gt;Resource Manager 1&lt;br&gt;&lt;/font&gt;" style="swimlane;whiteSpace=wrap;html=1;startSize=60;strokeWidth=4;fillColor=#e1d5e7;strokeColor=#9673a6;" parent="1" vertex="1">
          <mxGeometry x="70" y="650" width="840" height="760" as="geometry" />
        </mxCell>
        <mxCell id="BW--KUniSTBB0yEnEaVZ-4" value="&lt;font style=&quot;font-size: 40px;&quot;&gt;Controller Manager 1 (CM 1)&lt;br&gt;&lt;/font&gt;" style="swimlane;whiteSpace=wrap;html=1;startSize=60;strokeWidth=4;fillColor=none;" parent="1" vertex="1">
          <mxGeometry x="40" y="560" width="1610" height="870" as="geometry" />
        </mxCell>
        <mxCell id="BW--KUniSTBB0yEnEaVZ-5" value="&lt;font style=&quot;font-size: 30px;&quot;&gt;Controller A&lt;br&gt;&lt;/font&gt;" style="swimlane;whiteSpace=wrap;html=1;startSize=60;strokeWidth=4;fillColor=#dae8fc;strokeColor=#6c8ebf;" parent="BW--KUniSTBB0yEnEaVZ-4" vertex="1">
          <mxGeometry x="1110" y="240" width="440" height="280" as="geometry" />
        </mxCell>
        <mxCell id="BW--KUniSTBB0yEnEaVZ-6" value="&lt;div&gt;&lt;b&gt;&lt;font style=&quot;font-size: 35px;&quot;&gt;Loaned Command-&lt;/font&gt;&lt;/b&gt;&lt;/div&gt;&lt;div&gt;&lt;b&gt;&lt;font style=&quot;font-size: 35px;&quot;&gt;/Stateinterfaces&lt;/font&gt;&lt;/b&gt;&lt;/div&gt;" style="rounded=1;whiteSpace=wrap;html=1;" parent="BW--KUniSTBB0yEnEaVZ-5" vertex="1">
          <mxGeometry x="75" y="100" width="290" height="140" as="geometry" />
        </mxCell>
        <mxCell id="BW--KUniSTBB0yEnEaVZ-7" value="" style="rounded=0;whiteSpace=wrap;html=1;rotation=-30;" parent="BW--KUniSTBB0yEnEaVZ-4" vertex="1">
          <mxGeometry x="320" y="630" width="30" height="10" as="geometry" />
        </mxCell>
        <mxCell id="BW--KUniSTBB0yEnEaVZ-8" value="" style="rounded=0;whiteSpace=wrap;html=1;rotation=-30;" parent="BW--KUniSTBB0yEnEaVZ-4" vertex="1">
          <mxGeometry x="300" y="600" width="30" height="10" as="geometry" />
        </mxCell>
        <mxCell id="BW--KUniSTBB0yEnEaVZ-9" value="" style="shape=cylinder3;whiteSpace=wrap;html=1;boundedLbl=1;backgroundOutline=1;size=15;" parent="BW--KUniSTBB0yEnEaVZ-4" vertex="1">
          <mxGeometry x="161.25" y="780" width="67.5" height="40" as="geometry" />
        </mxCell>
        <mxCell id="BW--KUniSTBB0yEnEaVZ-10" value="" style="rounded=0;whiteSpace=wrap;html=1;rotation=-30;direction=south;" parent="BW--KUniSTBB0yEnEaVZ-4" vertex="1">
          <mxGeometry x="220" y="640" width="100" height="20" as="geometry" />
        </mxCell>
        <mxCell id="BW--KUniSTBB0yEnEaVZ-11" value="" style="rounded=0;whiteSpace=wrap;html=1;rotation=15;" parent="BW--KUniSTBB0yEnEaVZ-4" vertex="1">
          <mxGeometry x="200" y="670" width="20" height="110" as="geometry" />
        </mxCell>
        <mxCell id="BW--KUniSTBB0yEnEaVZ-12" value="" style="ellipse;whiteSpace=wrap;html=1;aspect=fixed;" parent="BW--KUniSTBB0yEnEaVZ-4" vertex="1">
          <mxGeometry x="180" y="770" width="30" height="30" as="geometry" />
        </mxCell>
        <mxCell id="BW--KUniSTBB0yEnEaVZ-13" value="" style="ellipse;whiteSpace=wrap;html=1;aspect=fixed;" parent="BW--KUniSTBB0yEnEaVZ-4" vertex="1">
          <mxGeometry x="210" y="660" width="30" height="30" as="geometry" />
        </mxCell>
        <mxCell id="BW--KUniSTBB0yEnEaVZ-14" value="" style="rounded=0;whiteSpace=wrap;html=1;rotation=60;" parent="BW--KUniSTBB0yEnEaVZ-4" vertex="1">
          <mxGeometry x="290" y="620" width="50" height="10" as="geometry" />
        </mxCell>
        <mxCell id="BW--KUniSTBB0yEnEaVZ-15" value="" style="endArrow=classic;startArrow=classic;html=1;rounded=1;" parent="BW--KUniSTBB0yEnEaVZ-4" edge="1">
          <mxGeometry width="50" height="50" relative="1" as="geometry">
            <mxPoint x="200" y="670" as="sourcePoint" />
            <mxPoint x="220" y="650" as="targetPoint" />
            <Array as="points">
              <mxPoint x="200" y="650" />
            </Array>
          </mxGeometry>
        </mxCell>
        <mxCell id="BW--KUniSTBB0yEnEaVZ-16" value="" style="endArrow=classic;startArrow=classic;html=1;rounded=1;" parent="BW--KUniSTBB0yEnEaVZ-4" edge="1">
          <mxGeometry width="50" height="50" relative="1" as="geometry">
            <mxPoint x="158.75" y="780" as="sourcePoint" />
            <mxPoint x="168.75" y="750" as="targetPoint" />
            <Array as="points">
              <mxPoint x="150" y="760" />
            </Array>
          </mxGeometry>
        </mxCell>
        <mxCell id="BW--KUniSTBB0yEnEaVZ-17" value="" style="endArrow=classic;startArrow=classic;html=1;rounded=1;" parent="BW--KUniSTBB0yEnEaVZ-4" edge="1">
          <mxGeometry width="50" height="50" relative="1" as="geometry">
            <mxPoint x="150" y="810" as="sourcePoint" />
            <mxPoint x="150" y="790" as="targetPoint" />
            <Array as="points">
              <mxPoint x="140" y="800" />
            </Array>
          </mxGeometry>
        </mxCell>
        <mxCell id="BW--KUniSTBB0yEnEaVZ-18" value="" style="endArrow=classic;startArrow=classic;html=1;rounded=0;" parent="BW--KUniSTBB0yEnEaVZ-4" edge="1">
          <mxGeometry width="50" height="50" relative="1" as="geometry">
            <mxPoint x="360" y="620" as="sourcePoint" />
            <mxPoint x="340" y="585" as="targetPoint" />
          </mxGeometry>
        </mxCell>
        <mxCell id="BW--KUniSTBB0yEnEaVZ-19" style="edgeStyle=orthogonalEdgeStyle;rounded=0;orthogonalLoop=1;jettySize=auto;html=1;exitX=1;exitY=0.5;exitDx=0;exitDy=0;entryX=0.38;entryY=1.036;entryDx=0;entryDy=0;entryPerimeter=0;strokeWidth=4;" parent="BW--KUniSTBB0yEnEaVZ-4" source="BW--KUniSTBB0yEnEaVZ-20" target="BW--KUniSTBB0yEnEaVZ-38" edge="1">
          <mxGeometry relative="1" as="geometry" />
        </mxCell>
        <mxCell id="BW--KUniSTBB0yEnEaVZ-20" value="&lt;font size=&quot;1&quot;&gt;&lt;b style=&quot;font-size: 35px;&quot;&gt;System 1&lt;/b&gt;&lt;/font&gt;" style="swimlane;whiteSpace=wrap;html=1;startSize=60;" parent="BW--KUniSTBB0yEnEaVZ-4" vertex="1">
          <mxGeometry x="70" y="480" width="680" height="350" as="geometry" />
        </mxCell>
        <mxCell id="BW--KUniSTBB0yEnEaVZ-21" value="" style="rounded=0;whiteSpace=wrap;html=1;rotation=-30;" parent="BW--KUniSTBB0yEnEaVZ-20" vertex="1">
          <mxGeometry x="600" y="150" width="30" height="10" as="geometry" />
        </mxCell>
        <mxCell id="BW--KUniSTBB0yEnEaVZ-22" value="" style="rounded=0;whiteSpace=wrap;html=1;rotation=-30;" parent="BW--KUniSTBB0yEnEaVZ-20" vertex="1">
          <mxGeometry x="580" y="120" width="30" height="10" as="geometry" />
        </mxCell>
        <mxCell id="BW--KUniSTBB0yEnEaVZ-23" value="" style="shape=cylinder3;whiteSpace=wrap;html=1;boundedLbl=1;backgroundOutline=1;size=15;" parent="BW--KUniSTBB0yEnEaVZ-20" vertex="1">
          <mxGeometry x="441.25" y="300" width="67.5" height="40" as="geometry" />
        </mxCell>
        <mxCell id="BW--KUniSTBB0yEnEaVZ-24" value="" style="rounded=0;whiteSpace=wrap;html=1;rotation=-30;direction=south;" parent="BW--KUniSTBB0yEnEaVZ-20" vertex="1">
          <mxGeometry x="500" y="160" width="100" height="20" as="geometry" />
        </mxCell>
        <mxCell id="BW--KUniSTBB0yEnEaVZ-25" value="" style="rounded=0;whiteSpace=wrap;html=1;rotation=15;" parent="BW--KUniSTBB0yEnEaVZ-20" vertex="1">
          <mxGeometry x="480" y="190" width="20" height="110" as="geometry" />
        </mxCell>
        <mxCell id="BW--KUniSTBB0yEnEaVZ-26" value="" style="ellipse;whiteSpace=wrap;html=1;aspect=fixed;" parent="BW--KUniSTBB0yEnEaVZ-20" vertex="1">
          <mxGeometry x="460" y="290" width="30" height="30" as="geometry" />
        </mxCell>
        <mxCell id="BW--KUniSTBB0yEnEaVZ-27" value="" style="ellipse;whiteSpace=wrap;html=1;aspect=fixed;" parent="BW--KUniSTBB0yEnEaVZ-20" vertex="1">
          <mxGeometry x="490" y="180" width="30" height="30" as="geometry" />
        </mxCell>
        <mxCell id="BW--KUniSTBB0yEnEaVZ-28" value="" style="rounded=0;whiteSpace=wrap;html=1;rotation=60;" parent="BW--KUniSTBB0yEnEaVZ-20" vertex="1">
          <mxGeometry x="570" y="140" width="50" height="10" as="geometry" />
        </mxCell>
        <mxCell id="BW--KUniSTBB0yEnEaVZ-29" value="" style="endArrow=classic;startArrow=classic;html=1;rounded=1;" parent="BW--KUniSTBB0yEnEaVZ-20" edge="1">
          <mxGeometry width="50" height="50" relative="1" as="geometry">
            <mxPoint x="480" y="190" as="sourcePoint" />
            <mxPoint x="500" y="170" as="targetPoint" />
            <Array as="points">
              <mxPoint x="480" y="170" />
            </Array>
          </mxGeometry>
        </mxCell>
        <mxCell id="BW--KUniSTBB0yEnEaVZ-30" value="" style="endArrow=classic;startArrow=classic;html=1;rounded=1;" parent="BW--KUniSTBB0yEnEaVZ-20" edge="1">
          <mxGeometry width="50" height="50" relative="1" as="geometry">
            <mxPoint x="438.75" y="300" as="sourcePoint" />
            <mxPoint x="448.75" y="270" as="targetPoint" />
            <Array as="points">
              <mxPoint x="430" y="280" />
            </Array>
          </mxGeometry>
        </mxCell>
        <mxCell id="BW--KUniSTBB0yEnEaVZ-31" value="" style="endArrow=classic;startArrow=classic;html=1;rounded=1;" parent="BW--KUniSTBB0yEnEaVZ-20" edge="1">
          <mxGeometry width="50" height="50" relative="1" as="geometry">
            <mxPoint x="430" y="330" as="sourcePoint" />
            <mxPoint x="430" y="310" as="targetPoint" />
            <Array as="points">
              <mxPoint x="420" y="320" />
            </Array>
          </mxGeometry>
        </mxCell>
        <mxCell id="BW--KUniSTBB0yEnEaVZ-32" value="" style="endArrow=classic;startArrow=classic;html=1;rounded=0;" parent="BW--KUniSTBB0yEnEaVZ-20" edge="1">
          <mxGeometry width="50" height="50" relative="1" as="geometry">
            <mxPoint x="640" y="140" as="sourcePoint" />
            <mxPoint x="620" y="105" as="targetPoint" />
          </mxGeometry>
        </mxCell>
        <mxCell id="BW--KUniSTBB0yEnEaVZ-33" value="" style="ellipse;whiteSpace=wrap;html=1;aspect=fixed;fillColor=#000000;" parent="BW--KUniSTBB0yEnEaVZ-20" vertex="1">
          <mxGeometry x="300" y="235" width="20" height="20" as="geometry" />
        </mxCell>
        <mxCell id="BW--KUniSTBB0yEnEaVZ-34" value="" style="ellipse;whiteSpace=wrap;html=1;aspect=fixed;fillColor=#000000;" parent="BW--KUniSTBB0yEnEaVZ-20" vertex="1">
          <mxGeometry x="330" y="235" width="20" height="20" as="geometry" />
        </mxCell>
        <mxCell id="BW--KUniSTBB0yEnEaVZ-35" value="" style="ellipse;whiteSpace=wrap;html=1;aspect=fixed;fillColor=#000000;" parent="BW--KUniSTBB0yEnEaVZ-20" vertex="1">
          <mxGeometry x="360" y="235" width="20" height="20" as="geometry" />
        </mxCell>
        <mxCell id="BW--KUniSTBB0yEnEaVZ-36" value="&lt;span style=&quot;font-size: 35px;&quot;&gt;Robot 1&lt;br&gt;&lt;/span&gt;" style="text;html=1;strokeColor=none;fillColor=none;align=center;verticalAlign=middle;whiteSpace=wrap;rounded=0;" parent="BW--KUniSTBB0yEnEaVZ-20" vertex="1">
          <mxGeometry x="80" y="70" width="190" height="30" as="geometry" />
        </mxCell>
        <mxCell id="BW--KUniSTBB0yEnEaVZ-37" value="&lt;span style=&quot;font-size: 35px;&quot;&gt;Robot N&lt;br&gt;&lt;/span&gt;" style="text;html=1;strokeColor=none;fillColor=none;align=center;verticalAlign=middle;whiteSpace=wrap;rounded=0;" parent="BW--KUniSTBB0yEnEaVZ-20" vertex="1">
          <mxGeometry x="441.25" y="70" width="190" height="30" as="geometry" />
        </mxCell>
        <mxCell id="BW--KUniSTBB0yEnEaVZ-38" value="&lt;div&gt;&lt;b&gt;&lt;font style=&quot;font-size: 35px;&quot;&gt;Command-&lt;/font&gt;&lt;/b&gt;&lt;/div&gt;&lt;div&gt;&lt;b&gt;&lt;font style=&quot;font-size: 35px;&quot;&gt;/Stateinterfaces&lt;/font&gt;&lt;/b&gt;&lt;/div&gt;" style="rounded=1;whiteSpace=wrap;html=1;" parent="BW--KUniSTBB0yEnEaVZ-4" vertex="1">
          <mxGeometry x="80" y="250" width="290" height="120" as="geometry" />
        </mxCell>
        <mxCell id="BW--KUniSTBB0yEnEaVZ-39" value="&lt;font style=&quot;font-size: 30px;&quot;&gt;&lt;i&gt;Export&lt;/i&gt;&lt;/font&gt;" style="text;html=1;align=center;verticalAlign=middle;resizable=0;points=[];autosize=1;strokeColor=none;fillColor=none;" parent="BW--KUniSTBB0yEnEaVZ-4" vertex="1">
          <mxGeometry x="245" y="380" width="110" height="50" as="geometry" />
        </mxCell>
        <mxCell id="BW--KUniSTBB0yEnEaVZ-40" value="" style="endArrow=none;dashed=1;html=1;dashPattern=1 4;strokeWidth=6;rounded=0;entryX=1;entryY=0.5;entryDx=0;entryDy=0;jumpSize=2;jumpStyle=none;targetPerimeterSpacing=0;" parent="BW--KUniSTBB0yEnEaVZ-4" target="BW--KUniSTBB0yEnEaVZ-38" edge="1">
          <mxGeometry width="50" height="50" relative="1" as="geometry">
            <mxPoint x="870" y="400" as="sourcePoint" />
            <mxPoint x="570" y="270" as="targetPoint" />
          </mxGeometry>
        </mxCell>
        <mxCell id="BW--KUniSTBB0yEnEaVZ-41" style="edgeStyle=orthogonalEdgeStyle;rounded=0;orthogonalLoop=1;jettySize=auto;html=1;strokeWidth=5;" parent="BW--KUniSTBB0yEnEaVZ-4" edge="1">
          <mxGeometry relative="1" as="geometry">
            <mxPoint x="1180" y="400" as="targetPoint" />
            <mxPoint x="870" y="400" as="sourcePoint" />
          </mxGeometry>
        </mxCell>
        <mxCell id="BW--KUniSTBB0yEnEaVZ-42" value="&lt;font style=&quot;font-size: 35px;&quot;&gt;&lt;i&gt;Assigne by&lt;br&gt;CM 1&lt;br&gt;&lt;/i&gt;&lt;/font&gt;" style="edgeLabel;html=1;align=center;verticalAlign=middle;resizable=0;points=[];" parent="BW--KUniSTBB0yEnEaVZ-41" vertex="1" connectable="0">
          <mxGeometry x="0.15" y="6" relative="1" as="geometry">
            <mxPoint x="-57" y="-64" as="offset" />
          </mxGeometry>
        </mxCell>
        <mxCell id="BW--KUniSTBB0yEnEaVZ-43" value="&lt;b&gt;&lt;font style=&quot;font-size: 80px;&quot;&gt;&amp;nbsp;Machine 1&lt;br&gt;&lt;/font&gt;&lt;/b&gt;" style="text;html=1;align=center;verticalAlign=middle;resizable=0;points=[];autosize=1;strokeColor=none;fillColor=none;" parent="1" vertex="1">
          <mxGeometry x="625" y="340" width="430" height="110" as="geometry" />
        </mxCell>
      </root>
    </mxGraphModel>
  </diagram>
</mxfile>
